<svg xmlns="http://www.w3.org/2000/svg" xmlns:xlink="http://www.w3.org/1999/xlink" width="646" zoomAndPan="magnify" viewBox="0 0 484.5 411.749988" height="549" preserveAspectRatio="xMidYMid meet" version="1.0"><defs><clipPath id="5006e83872"><path d="M 0 0.0859375 L 483.796875 0.0859375 L 483.796875 411.277344 L 0 411.277344 Z M 0 0.0859375 " clip-rule="nonzero"/></clipPath><clipPath id="a86054fdd2"><path d="M 75.148438 51.023438 L 408.554688 51.023438 L 408.554688 360.453125 L 75.148438 360.453125 Z M 75.148438 51.023438 " clip-rule="nonzero"/></clipPath></defs><g clip-path="url(#5006e83872)"><path fill="#e4e4df" d="M 0 0.0859375 L 483.46875 0.0859375 L 483.46875 411.277344 L 0 411.277344 Z M 0 0.0859375 " fill-opacity="1" fill-rule="nonzero"/></g><g clip-path="url(#a86054fdd2)"><path fill="#000000" d="M 75.425781 359.679688 C 75.261719 359.253906 75.5 358.539062 75.949219 358.089844 C 76.707031 357.332031 88.042969 357.261719 237.976562 357.148438 C 397.039062 357.019531 399.179688 357.035156 399.179688 357.964844 C 399.179688 358.492188 398.832031 359.257812 398.410156 359.683594 C 397.71875 360.378906 382.355469 360.453125 236.683594 360.453125 C 90.539062 360.453125 75.695312 360.378906 75.425781 359.679688 Z M 179.171875 352.742188 C 179.304688 352.273438 179.65625 343.847656 179.953125 334.015625 C 180.253906 324.183594 180.617188 314.367188 180.761719 312.199219 C 181.019531 308.324219 181.050781 308.242188 182.546875 307.679688 C 183.382812 307.359375 184.179688 307.214844 184.320312 307.355469 C 184.582031 307.621094 183.546875 342.144531 183.054688 349.316406 L 182.761719 353.597656 L 180.84375 353.597656 C 179.253906 353.597656 178.972656 353.453125 179.171875 352.742188 Z M 256.203125 336.988281 C 251.460938 336.820312 247.808594 336.480469 247.507812 336.179688 C 247.140625 335.8125 247.625 334.214844 249.175781 330.714844 C 252.296875 323.675781 261.574219 305.230469 264.886719 299.476562 C 270.769531 289.277344 279.285156 277.425781 286.464844 269.476562 L 289.699219 265.894531 L 288.289062 264.339844 C 287.515625 263.480469 286.867188 262.726562 286.847656 262.660156 C 286.847656 262.589844 284.292969 262.890625 281.21875 263.324219 C 277.734375 263.816406 274.210938 264.007812 271.875 263.828125 L 268.117188 263.546875 L 260.128906 268.375 C 245.554688 277.175781 222.128906 289.257812 206.625 295.964844 C 189.679688 303.289062 168.496094 310.195312 156.738281 312.222656 C 153.292969 312.816406 140.332031 314.429688 139.003906 314.429688 C 138.863281 314.429688 138.859375 313.59375 139.003906 312.570312 C 139.316406 310.230469 145.589844 297.214844 154.035156 281.382812 C 165.15625 260.535156 171.34375 247.960938 175.082031 238.601562 L 178.671875 229.597656 L 177.609375 220.484375 C 177.023438 215.472656 176.496094 210.714844 176.429688 209.914062 L 176.3125 208.453125 L 170.027344 207.574219 C 160.019531 206.167969 149.707031 202.433594 140.511719 196.875 C 125.714844 187.933594 116.363281 177.457031 111.785156 164.699219 C 109.109375 157.242188 108.789062 154.925781 108.800781 143.070312 C 108.800781 133.417969 108.953125 131.355469 109.964844 126.421875 C 114.167969 105.964844 125.890625 87.546875 139.859375 79.441406 C 143.449219 77.359375 145.472656 76.550781 158.945312 71.8125 C 164.210938 69.957031 169.679688 67.699219 171.152344 66.757812 C 176.804688 63.171875 186.074219 59.390625 197.132812 56.175781 C 204.652344 53.992188 219.191406 51.023438 222.390625 51.023438 C 225.183594 51.023438 227.933594 51.480469 227.933594 51.945312 C 227.933594 52.511719 222.347656 53.976562 215.457031 55.21875 C 201.726562 57.699219 188.429688 61.492188 179.984375 65.34375 L 176.3125 67.015625 L 185.121094 67.347656 C 189.964844 67.53125 194.808594 67.847656 195.886719 68.0625 C 197.363281 68.351562 198.6875 68.179688 201.28125 67.363281 C 211.832031 64.046875 233.316406 61.085938 233.316406 62.945312 C 233.316406 64.621094 231.421875 65.261719 222.253906 66.707031 C 212.492188 68.238281 208.832031 68.90625 205.726562 69.703125 L 203.824219 70.191406 L 207.457031 71.773438 C 228.394531 80.878906 242.9375 96.019531 249.648438 115.6875 C 252.585938 124.292969 253.476562 129.496094 253.484375 138.171875 C 253.484375 149.371094 251.878906 156.695312 247.214844 166.535156 C 241.898438 177.726562 233.375 188.304688 224.539062 194.671875 C 213.132812 202.890625 198.292969 207.953125 184.707031 208.261719 C 181.851562 208.328125 179.804688 208.582031 179.6875 208.890625 C 179.570312 209.175781 180.035156 213.15625 180.710938 217.734375 C 181.386719 222.3125 181.941406 226.792969 181.941406 227.691406 C 181.941406 229.007812 182.488281 229.90625 184.792969 232.34375 C 186.359375 234.003906 189.414062 237.566406 191.574219 240.261719 C 193.734375 242.957031 196.6875 246.464844 198.140625 248.054688 C 201.296875 251.507812 217.472656 265.789062 225.855469 272.515625 C 229.152344 275.160156 231.851562 277.488281 231.851562 277.691406 C 231.851562 277.886719 230.972656 278.445312 229.902344 278.929688 L 227.960938 279.804688 L 225.175781 277.65625 C 220.957031 274.402344 211.382812 266.136719 203.625 259.0625 C 196.722656 252.761719 192.398438 247.964844 186.34375 239.898438 C 184.597656 237.5625 183.09375 235.960938 183.011719 236.339844 C 182.929688 236.710938 183.109375 240.28125 183.421875 244.269531 C 183.738281 248.257812 184.101562 262.140625 184.25 275.128906 L 184.507812 298.742188 L 183.191406 299.242188 C 182.46875 299.515625 181.671875 299.742188 181.417969 299.742188 C 181.144531 299.742188 180.957031 293.132812 180.953125 283.21875 C 180.953125 262.796875 179.824219 235.980469 179.019531 236.921875 C 178.839844 237.140625 177.605469 239.960938 176.289062 243.191406 C 173.164062 250.859375 167.820312 261.695312 156.75 282.800781 C 147.207031 301 142.933594 309.835938 143.441406 310.34375 C 143.996094 310.894531 159.03125 308.507812 165.679688 306.808594 C 192.28125 300.023438 224.980469 285.636719 257.664062 266.339844 C 261.769531 263.917969 265.273438 261.699219 265.453125 261.410156 C 265.636719 261.117188 265.726562 259.738281 265.664062 258.339844 C 265.53125 255.488281 267.425781 249.125 269.117188 246.746094 L 270.136719 245.324219 L 264.296875 239.359375 C 261.085938 236.085938 256.714844 231.3125 254.582031 228.75 C 252.453125 226.195312 247.878906 220.824219 244.417969 216.820312 C 238.980469 210.523438 238.175781 209.371094 238.445312 208.292969 C 238.710938 207.242188 238.308594 206.578125 235.863281 204.070312 C 234.265625 202.429688 232.847656 200.746094 232.707031 200.328125 C 231.976562 198.199219 235.121094 195.070312 237.523438 195.535156 C 237.996094 195.628906 239.71875 197.269531 241.355469 199.183594 C 243.914062 202.183594 244.507812 202.628906 245.632812 202.433594 C 246.652344 202.257812 247.253906 202.5625 248.378906 203.8125 L 249.816406 205.429688 L 251.621094 204.359375 C 252.621094 203.769531 253.828125 203.292969 254.3125 203.292969 C 255.5 203.292969 272.460938 221.039062 272.460938 222.28125 C 272.460938 222.878906 271.363281 223.851562 270.6875 223.851562 C 270.363281 223.851562 266.398438 219.773438 261.882812 214.796875 C 257.367188 209.816406 253.550781 205.742188 253.402344 205.753906 C 253.257812 205.753906 252.71875 206.085938 252.203125 206.472656 C 251.324219 207.144531 251.429688 207.351562 254.453125 210.742188 C 256.207031 212.699219 259.675781 216.730469 262.160156 219.691406 C 264.652344 222.652344 269.652344 228.402344 273.277344 232.460938 L 279.867188 239.84375 L 282.121094 238.703125 C 284.726562 237.382812 288.875 237.171875 290.957031 238.25 C 292.785156 239.203125 294.292969 240.917969 295.1875 243.0625 C 295.609375 244.058594 296.625 245.375 297.449219 245.988281 C 299.34375 247.386719 300.9375 249.949219 301.3125 252.210938 L 301.609375 253.964844 L 304.773438 250.984375 C 308.429688 247.535156 317.503906 239.671875 322.945312 235.238281 C 326.671875 232.195312 326.71875 232.175781 329.792969 232.183594 C 331.496094 232.183594 335.421875 232.402344 338.515625 232.671875 C 341.609375 232.9375 351.628906 233.710938 360.78125 234.390625 C 385.417969 236.226562 395.289062 237.382812 396.484375 238.566406 C 397.449219 239.519531 397.449219 239.53125 396.238281 240.691406 C 395.574219 241.328125 392.167969 243.796875 388.671875 246.167969 C 378.796875 252.867188 370.089844 259.511719 364.207031 264.847656 C 356.835938 271.53125 356.761719 271.621094 357.742188 272.699219 C 360.28125 275.507812 361.363281 282.132812 359.863281 285.714844 C 356.890625 292.839844 343.394531 298.796875 336.042969 296.230469 C 334.445312 295.675781 334.363281 295.714844 332.261719 298.070312 C 328.960938 301.769531 320.117188 313.609375 316.453125 319.222656 C 314.648438 322 311.769531 326.886719 310.066406 330.089844 L 306.957031 335.914062 L 304.507812 336.1875 C 301.863281 336.488281 268.515625 337.496094 265.953125 337.355469 C 265.09375 337.304688 260.707031 337.144531 256.210938 336.988281 Z M 287.128906 333.269531 C 294.257812 333.128906 301.3125 332.878906 302.808594 332.726562 L 305.515625 332.441406 L 307.679688 328.214844 C 311.449219 320.855469 320.671875 307.617188 328.820312 297.871094 C 332.535156 293.425781 332.636719 293.246094 332.636719 290.6875 C 332.636719 287.453125 333.761719 284.765625 336.804688 280.726562 C 341.191406 274.910156 347.097656 270.898438 351.914062 270.480469 C 354.160156 270.285156 354.703125 269.980469 357.34375 267.449219 C 365.582031 259.566406 372.792969 253.851562 384.84375 245.65625 C 388.394531 243.242188 391.230469 241.195312 391.140625 241.109375 C 390.792969 240.753906 373.703125 239.011719 361.257812 238.058594 C 353.992188 237.5 344.410156 236.726562 339.976562 236.328125 C 335.535156 235.9375 330.652344 235.613281 329.125 235.609375 C 326.40625 235.609375 326.285156 235.667969 322.960938 238.664062 C 321.097656 240.347656 316.738281 244.148438 313.273438 247.109375 C 305.503906 253.757812 290.996094 268.125 286.082031 274.039062 C 273.851562 288.769531 266.589844 300.535156 255.738281 323.183594 L 250.898438 333.28125 L 255.683594 333.5625 C 258.3125 333.722656 263.546875 333.773438 267.3125 333.691406 C 271.082031 333.609375 280 333.417969 287.128906 333.269531 Z M 346.972656 292.394531 C 350.796875 291.210938 354.46875 288.84375 355.984375 286.570312 C 358.097656 283.417969 357.222656 278.097656 353.921875 274.054688 C 352.75 272.617188 352.707031 272.609375 350.390625 273.214844 C 344.652344 274.722656 337.730469 281.6875 336.007812 287.667969 C 335.488281 289.503906 336.597656 292.257812 338.117188 292.863281 C 340.003906 293.621094 343.621094 293.425781 346.972656 292.394531 Z M 296.222656 258.734375 C 296.117188 258.636719 294.710938 259.222656 293.089844 260.039062 C 290.261719 261.46875 290.167969 261.578125 290.714844 262.746094 L 291.289062 263.96875 L 293.847656 261.441406 C 295.253906 260.054688 296.320312 258.835938 296.222656 258.734375 Z M 281.011719 260.066406 C 286.765625 259.238281 291.515625 257.96875 294.65625 256.421875 C 297.277344 255.125 297.671875 254.753906 297.800781 253.402344 C 297.984375 251.523438 295.785156 248.773438 292.945312 247.328125 C 287.128906 244.359375 275.117188 244.128906 272.148438 246.921875 C 271.128906 247.878906 269.613281 251.703125 268.816406 255.3125 C 267.792969 259.953125 271.558594 261.421875 281.011719 260.066406 Z M 275.304688 242.9375 C 277.445312 242.9375 277.535156 242.121094 275.644531 239.816406 C 274.632812 238.574219 273.625 237.5625 273.410156 237.5625 C 273.195312 237.5625 272.324219 238.253906 271.480469 239.09375 L 269.949219 240.628906 L 271.570312 242.011719 C 272.457031 242.777344 273.480469 243.300781 273.835938 243.171875 C 274.195312 243.050781 274.855469 242.941406 275.304688 242.9375 Z M 289.425781 241.710938 C 287.820312 240.292969 284.027344 240.027344 282.453125 241.21875 C 281.570312 241.886719 281.660156 241.941406 283.703125 241.988281 C 285.503906 242.039062 287.316406 242.261719 290.554688 242.871094 C 290.6875 242.871094 290.183594 242.375 289.425781 241.710938 Z M 271.859375 235.78125 C 271.945312 235.730469 270.078125 233.527344 267.710938 230.855469 C 262.429688 224.90625 250.472656 210.957031 247.558594 207.359375 C 246.386719 205.90625 245.175781 204.796875 244.871094 204.898438 C 244.140625 205.136719 242.113281 208.148438 242.113281 208.988281 C 242.113281 209.351562 243.792969 211.46875 245.84375 213.691406 C 247.890625 215.914062 252.15625 220.816406 255.3125 224.585938 C 258.460938 228.359375 262.648438 233.160156 264.617188 235.261719 L 268.195312 239.085938 L 269.949219 237.464844 C 270.914062 236.578125 271.777344 235.820312 271.859375 235.78125 Z M 241.980469 204.417969 C 242.082031 204.128906 240.890625 202.453125 239.339844 200.691406 C 237.019531 198.050781 236.371094 197.570312 235.652344 197.957031 C 234.269531 198.699219 234.570312 199.304688 237.832031 202.351562 C 240.792969 205.113281 241.613281 205.523438 241.980469 204.417969 Z M 197.132812 203.085938 C 209.972656 200.40625 221.140625 194.679688 230.042969 186.199219 C 231.34375 184.964844 232.84375 183.347656 233.371094 182.621094 L 234.335938 181.285156 L 230.699219 183.011719 C 224.574219 185.921875 219.058594 186.777344 208.109375 186.507812 C 197.070312 186.238281 191.878906 185.132812 184.460938 181.472656 C 180.78125 179.65625 179.117188 178.449219 175.875 175.222656 C 171.46875 170.839844 169.425781 167.503906 170.226562 166.003906 C 170.976562 164.613281 172.449219 164.925781 173.546875 166.710938 C 174.929688 168.949219 180.6875 174.359375 183.730469 176.289062 C 187.269531 178.519531 192.816406 180.570312 198.703125 181.804688 C 206.308594 183.410156 218.109375 183.320312 224.539062 181.621094 C 229.539062 180.292969 234.183594 178.1875 236.609375 176.148438 C 237.425781 175.457031 238.332031 174.894531 238.617188 174.894531 C 239.910156 174.894531 245.492188 163.527344 247.480469 156.832031 C 248.921875 151.988281 249.214844 148.910156 249.179688 138.910156 C 249.128906 130.574219 249.0625 129.773438 247.574219 124.21875 C 244.980469 114.554688 242.742188 109.4375 237.800781 101.941406 C 228.84375 88.359375 210.695312 75.710938 195.167969 72.214844 C 190.195312 71.097656 188.363281 70.933594 179.972656 70.894531 C 171.054688 70.847656 170.273438 70.945312 168.039062 71.957031 C 166.460938 72.683594 165.457031 72.90625 165.085938 72.597656 C 164.722656 72.292969 163.65625 72.363281 162.09375 72.789062 L 159.667969 73.457031 L 161.871094 73.511719 C 163.082031 73.511719 164.398438 73.765625 164.800781 74.019531 C 166.320312 74.984375 164.351562 75.675781 159.066406 76.042969 C 142.347656 77.191406 128.882812 87.671875 119.789062 106.59375 C 115.277344 115.988281 113.253906 123.808594 112.394531 135.148438 C 110.875 155.378906 115.519531 169.140625 128.167969 181.832031 C 138.019531 191.722656 154.359375 200.445312 167.742188 202.960938 C 173.890625 204.117188 173.667969 204.097656 182.910156 204.1875 C 190.273438 204.253906 192.265625 204.105469 197.132812 203.085938 Z M 225.898438 153.882812 C 224.910156 153.082031 224.753906 152.539062 224.808594 150.164062 C 224.863281 147.964844 225.300781 146.515625 226.925781 143.234375 C 229.691406 137.660156 232.234375 136.019531 234.84375 138.128906 C 235.867188 138.960938 236 139.476562 236 142.65625 C 236 145.472656 235.75 146.730469 234.855469 148.453125 C 233.375 151.300781 231.507812 153.300781 229.53125 154.144531 C 227.5 155.015625 227.277344 155.003906 225.898438 153.882812 Z M 207.796875 148.988281 C 203.816406 145.757812 210.382812 131.332031 215.839844 131.320312 C 217.328125 131.320312 218.957031 133.417969 219.3125 135.804688 C 220.507812 143.792969 212.582031 152.863281 207.796875 148.988281 Z M 243.394531 130.164062 C 240.910156 124.6875 239.480469 121.996094 238.671875 121.261719 C 237.484375 120.191406 237.980469 119.078125 239.632812 119.078125 C 241.332031 119.078125 242.695312 120.542969 244.332031 124.117188 C 245.417969 126.488281 245.574219 127.34375 245.296875 129.375 C 245.109375 130.710938 244.816406 131.890625 244.640625 132 C 244.464844 132.105469 243.898438 131.28125 243.394531 130.164062 Z M 202.691406 120.980469 C 201.859375 119.636719 207.371094 116.070312 212.722656 114.480469 C 216.117188 113.472656 219.117188 113.433594 219.117188 114.398438 C 219.117188 115.355469 218.863281 115.476562 213.894531 116.910156 C 211.519531 117.59375 208.476562 118.765625 207.128906 119.515625 C 203.890625 121.3125 203.0625 121.585938 202.691406 120.980469 Z M 138.871094 324.625 C 134.003906 323.609375 132.894531 323.125 130.78125 321.097656 C 128.71875 319.125 128.597656 318.855469 128.597656 316.351562 C 128.597656 313.425781 129.871094 310.269531 131.042969 310.269531 C 131.632812 310.269531 131.742188 310.839844 131.605469 313.148438 C 131.507812 314.847656 131.691406 316.503906 132.046875 317.171875 C 132.382812 317.804688 134.71875 319.675781 137.234375 321.335938 C 139.75 322.996094 141.808594 324.542969 141.808594 324.777344 C 141.808594 325.25 141.902344 325.257812 138.871094 324.625 Z M 242.714844 290.816406 L 235.253906 285.324219 L 237.5 284.179688 L 239.746094 283.039062 L 243.5 285.832031 C 245.5625 287.375 248.425781 289.625 249.863281 290.835938 L 252.476562 293.035156 L 267.050781 292.40625 L 266.261719 294.058594 C 265.316406 296.035156 264.003906 296.316406 255.621094 296.316406 L 250.175781 296.316406 Z M 402.605469 244.648438 C 402.605469 244.503906 403.265625 243.082031 404.074219 241.480469 C 406.289062 237.082031 405.820312 233.796875 402.800781 232.648438 C 401.367188 232.105469 401.296875 231.410156 402.613281 230.703125 C 403.867188 230.03125 405.785156 230.898438 407.167969 232.769531 C 408.40625 234.445312 408.457031 237.6875 407.277344 240.011719 C 405.980469 242.566406 402.605469 245.921875 402.605469 244.648438 Z M 226.457031 212.324219 C 223.472656 210.230469 222.75 206.757812 224.488281 202.914062 C 225.964844 199.671875 228.050781 199.246094 226.707031 202.464844 C 225.3125 205.8125 226.046875 208.980469 228.714844 211.082031 C 229.785156 211.921875 229.902344 212.226562 229.394531 212.832031 C 228.613281 213.777344 228.503906 213.757812 226.457031 212.324219 Z M 252.390625 191.835938 C 252.390625 190.816406 249.253906 188.253906 247.546875 187.878906 C 246.722656 187.695312 245.601562 187.675781 245.058594 187.828125 C 244.515625 187.980469 243.632812 188.234375 243.09375 188.386719 C 241.351562 188.882812 241.972656 187.136719 243.8125 186.371094 C 245.886719 185.503906 248.796875 185.464844 250.417969 186.289062 C 252.886719 187.539062 255.050781 192.515625 253.125 192.515625 C 252.722656 192.515625 252.390625 192.207031 252.390625 191.828125 Z M 252.390625 191.835938 " fill-opacity="1" fill-rule="nonzero"/></g></svg>