<svg xmlns="http://www.w3.org/2000/svg" xmlns:xlink="http://www.w3.org/1999/xlink" width="187" zoomAndPan="magnify" viewBox="0 0 140.25 71.249999" height="95" preserveAspectRatio="xMidYMid meet" version="1.0"><defs><g/><clipPath id="a56864cbc4"><path d="M 123.109375 32.050781 L 134.984375 32.050781 L 134.984375 45 L 123.109375 45 Z M 123.109375 32.050781 " clip-rule="nonzero"/></clipPath></defs><g clip-path="url(#a56864cbc4)"><path fill="#000000" d="M 128.871094 44.476562 C 125.691406 44.476562 123.109375 41.824219 123.109375 38.550781 C 123.109375 35.28125 125.691406 32.625 128.871094 32.625 C 132.054688 32.625 134.632812 35.28125 134.632812 38.550781 C 134.632812 41.824219 132.054688 44.476562 128.871094 44.476562 Z M 128.871094 43.402344 C 131.476562 43.402344 133.585938 41.230469 133.585938 38.550781 C 133.585938 35.875 131.476562 33.703125 128.871094 33.703125 C 126.269531 33.703125 124.15625 35.875 124.15625 38.550781 C 124.15625 41.230469 126.269531 43.402344 128.871094 43.402344 Z M 130.117188 37.613281 C 130.082031 37.464844 130.03125 37.328125 129.964844 37.207031 C 129.898438 37.082031 129.816406 36.972656 129.710938 36.878906 C 129.609375 36.789062 129.492188 36.71875 129.351562 36.667969 C 129.214844 36.617188 129.054688 36.59375 128.871094 36.59375 C 128.605469 36.59375 128.378906 36.648438 128.183594 36.757812 C 127.988281 36.867188 127.832031 37.015625 127.707031 37.203125 C 127.589844 37.386719 127.5 37.59375 127.441406 37.832031 C 127.382812 38.066406 127.351562 38.308594 127.351562 38.550781 C 127.351562 38.796875 127.382812 39.039062 127.441406 39.273438 C 127.5 39.507812 127.589844 39.714844 127.707031 39.902344 C 127.832031 40.085938 127.988281 40.234375 128.183594 40.34375 C 128.378906 40.457031 128.605469 40.511719 128.871094 40.511719 C 129.066406 40.511719 129.242188 40.476562 129.390625 40.40625 C 129.539062 40.335938 129.667969 40.242188 129.777344 40.117188 C 129.882812 39.996094 129.96875 39.855469 130.027344 39.691406 C 130.089844 39.527344 130.128906 39.351562 130.148438 39.164062 L 131.003906 39.164062 C 130.984375 39.472656 130.917969 39.753906 130.808594 40.007812 C 130.699219 40.261719 130.550781 40.480469 130.363281 40.664062 C 130.179688 40.851562 129.957031 40.992188 129.707031 41.09375 C 129.453125 41.195312 129.175781 41.246094 128.871094 41.246094 C 128.5 41.246094 128.164062 41.175781 127.867188 41.03125 C 127.570312 40.894531 127.320312 40.699219 127.113281 40.453125 C 126.910156 40.207031 126.75 39.925781 126.640625 39.597656 C 126.53125 39.269531 126.476562 38.921875 126.476562 38.550781 C 126.476562 38.1875 126.53125 37.84375 126.640625 37.515625 C 126.75 37.1875 126.910156 36.902344 127.113281 36.660156 C 127.320312 36.414062 127.570312 36.21875 127.867188 36.074219 C 128.164062 35.929688 128.5 35.859375 128.871094 35.859375 C 129.152344 35.859375 129.417969 35.898438 129.664062 35.976562 C 129.910156 36.058594 130.128906 36.171875 130.316406 36.324219 C 130.507812 36.472656 130.660156 36.660156 130.777344 36.875 C 130.894531 37.089844 130.96875 37.335938 130.996094 37.613281 Z M 130.117188 37.613281 " fill-opacity="1" fill-rule="nonzero"/></g><g fill="#000000" fill-opacity="1"><g transform="translate(16.576031, 44.378373)"><g><path d="M 16.34375 0.328125 C 13.238281 0.328125 10.550781 0.101562 8.28125 -0.34375 C 6.019531 -0.789062 4.285156 -1.601562 3.078125 -2.78125 C 1.867188 -3.96875 1.265625 -5.648438 1.265625 -7.828125 L 6.421875 -7.828125 C 6.421875 -6.910156 6.71875 -6.15625 7.3125 -5.5625 C 7.914062 -4.96875 8.960938 -4.523438 10.453125 -4.234375 C 11.941406 -3.953125 14.015625 -3.8125 16.671875 -3.8125 C 18.828125 -3.8125 20.53125 -3.910156 21.78125 -4.109375 C 23.03125 -4.304688 23.925781 -4.609375 24.46875 -5.015625 C 25.007812 -5.429688 25.28125 -5.976562 25.28125 -6.65625 C 25.28125 -7.195312 25.160156 -7.632812 24.921875 -7.96875 C 24.679688 -8.3125 24.222656 -8.578125 23.546875 -8.765625 C 22.878906 -8.960938 21.929688 -9.117188 20.703125 -9.234375 C 19.472656 -9.359375 17.859375 -9.476562 15.859375 -9.59375 C 12.597656 -9.769531 9.953125 -10.082031 7.921875 -10.53125 C 5.898438 -10.988281 4.421875 -11.707031 3.484375 -12.6875 C 2.554688 -13.664062 2.09375 -15.003906 2.09375 -16.703125 C 2.09375 -18.378906 2.640625 -19.679688 3.734375 -20.609375 C 4.835938 -21.546875 6.398438 -22.203125 8.421875 -22.578125 C 10.441406 -22.960938 12.851562 -23.15625 15.65625 -23.15625 C 18.507812 -23.15625 20.96875 -22.898438 23.03125 -22.390625 C 25.09375 -21.878906 26.675781 -21.050781 27.78125 -19.90625 C 28.894531 -18.769531 29.453125 -17.269531 29.453125 -15.40625 L 24.3125 -15.40625 C 24.3125 -16.351562 23.992188 -17.085938 23.359375 -17.609375 C 22.722656 -18.140625 21.722656 -18.503906 20.359375 -18.703125 C 19.003906 -18.910156 17.21875 -19.015625 15 -19.015625 C 12.9375 -19.015625 11.335938 -18.929688 10.203125 -18.765625 C 9.078125 -18.609375 8.300781 -18.335938 7.875 -17.953125 C 7.457031 -17.578125 7.25 -17.070312 7.25 -16.4375 C 7.25 -15.9375 7.363281 -15.523438 7.59375 -15.203125 C 7.832031 -14.878906 8.257812 -14.617188 8.875 -14.421875 C 9.5 -14.222656 10.378906 -14.054688 11.515625 -13.921875 C 12.648438 -13.796875 14.097656 -13.679688 15.859375 -13.578125 C 18.117188 -13.441406 20.144531 -13.28125 21.9375 -13.09375 C 23.726562 -12.914062 25.253906 -12.609375 26.515625 -12.171875 C 27.785156 -11.734375 28.753906 -11.09375 29.421875 -10.25 C 30.097656 -9.414062 30.4375 -8.28125 30.4375 -6.84375 C 30.4375 -5.320312 30.085938 -4.085938 29.390625 -3.140625 C 28.691406 -2.203125 27.710938 -1.484375 26.453125 -0.984375 C 25.191406 -0.484375 23.703125 -0.140625 21.984375 0.046875 C 20.265625 0.234375 18.382812 0.328125 16.34375 0.328125 Z M 16.34375 0.328125 "/></g></g></g><g fill="#000000" fill-opacity="1"><g transform="translate(49.262997, 44.378373)"><g><path d="M 1.59375 0 L 1.59375 -3.984375 L 6.59375 -3.984375 L 6.59375 0 Z M 1.59375 0 "/></g></g></g><g fill="#000000" fill-opacity="1"><g transform="translate(58.429861, 44.378373)"><g><path d="M 1.59375 0 L 1.59375 -22.84375 L 25.734375 -22.84375 L 25.734375 -18.6875 L 6.75 -18.6875 L 6.75 -13.375 L 25.734375 -13.375 L 25.734375 -9.46875 L 6.75 -9.46875 L 6.75 -4.140625 L 25.734375 -4.140625 L 25.734375 0 Z M 1.59375 0 "/></g></g></g><g fill="#000000" fill-opacity="1"><g transform="translate(86.419334, 44.378373)"><g><path d="M 1.59375 0 L 1.59375 -3.984375 L 6.59375 -3.984375 L 6.59375 0 Z M 1.59375 0 "/></g></g></g><g fill="#000000" fill-opacity="1"><g transform="translate(95.586198, 44.378373)"><g><path d="M 1.59375 0 L 1.59375 -22.84375 L 25.734375 -22.84375 L 25.734375 -18.6875 L 6.75 -18.6875 L 6.75 -13.375 L 25.734375 -13.375 L 25.734375 -9.46875 L 6.75 -9.46875 L 6.75 -4.140625 L 25.734375 -4.140625 L 25.734375 0 Z M 1.59375 0 "/></g></g></g></svg>