<svg xmlns="http://www.w3.org/2000/svg" xmlns:xlink="http://www.w3.org/1999/xlink" width="721" zoomAndPan="magnify" viewBox="0 0 540.75 532.499984" height="710" preserveAspectRatio="xMidYMid meet" version="1.0"><defs><clipPath id="7780a6420a"><path d="M 0.128906 0 L 539.988281 0 L 539.988281 531.558594 L 0.128906 531.558594 Z M 0.128906 0 " clip-rule="nonzero"/></clipPath><clipPath id="2733b1e872"><path d="M 328 235 L 352 235 L 352 261 L 328 261 Z M 328 235 " clip-rule="nonzero"/></clipPath><clipPath id="763e7d6218"><path d="M 247.371094 40.242188 L 458.871094 182.265625 L 292.617188 429.84375 L 81.117188 287.820312 Z M 247.371094 40.242188 " clip-rule="nonzero"/></clipPath><clipPath id="9087af395c"><path d="M 247.371094 40.242188 L 458.871094 182.265625 L 292.617188 429.84375 L 81.117188 287.820312 Z M 247.371094 40.242188 " clip-rule="nonzero"/></clipPath><clipPath id="31ebbc10fa"><path d="M 247.371094 40.242188 L 458.871094 182.265625 L 292.617188 429.84375 L 81.117188 287.820312 Z M 247.371094 40.242188 " clip-rule="nonzero"/></clipPath><clipPath id="90ecba2267"><path d="M 313 225 L 326 225 L 326 249 L 313 249 Z M 313 225 " clip-rule="nonzero"/></clipPath><clipPath id="dd11765e5c"><path d="M 247.371094 40.242188 L 458.871094 182.265625 L 292.617188 429.84375 L 81.117188 287.820312 Z M 247.371094 40.242188 " clip-rule="nonzero"/></clipPath><clipPath id="64b94b0d6d"><path d="M 247.371094 40.242188 L 458.871094 182.265625 L 292.617188 429.84375 L 81.117188 287.820312 Z M 247.371094 40.242188 " clip-rule="nonzero"/></clipPath><clipPath id="a7656e4a7c"><path d="M 247.371094 40.242188 L 458.871094 182.265625 L 292.617188 429.84375 L 81.117188 287.820312 Z M 247.371094 40.242188 " clip-rule="nonzero"/></clipPath><clipPath id="40600087db"><path d="M 339 263 L 361 263 L 361 276 L 339 276 Z M 339 263 " clip-rule="nonzero"/></clipPath><clipPath id="e1d3b03977"><path d="M 247.371094 40.242188 L 458.871094 182.265625 L 292.617188 429.84375 L 81.117188 287.820312 Z M 247.371094 40.242188 " clip-rule="nonzero"/></clipPath><clipPath id="b1f8bb1faa"><path d="M 247.371094 40.242188 L 458.871094 182.265625 L 292.617188 429.84375 L 81.117188 287.820312 Z M 247.371094 40.242188 " clip-rule="nonzero"/></clipPath><clipPath id="7cca8dd41f"><path d="M 247.371094 40.242188 L 458.871094 182.265625 L 292.617188 429.84375 L 81.117188 287.820312 Z M 247.371094 40.242188 " clip-rule="nonzero"/></clipPath><clipPath id="db99a5a46d"><path d="M 121 101 L 383 101 L 383 406 L 121 406 Z M 121 101 " clip-rule="nonzero"/></clipPath><clipPath id="f0faaedc70"><path d="M 247.371094 40.242188 L 458.871094 182.265625 L 292.617188 429.84375 L 81.117188 287.820312 Z M 247.371094 40.242188 " clip-rule="nonzero"/></clipPath><clipPath id="38b49af116"><path d="M 247.371094 40.242188 L 458.871094 182.265625 L 292.617188 429.84375 L 81.117188 287.820312 Z M 247.371094 40.242188 " clip-rule="nonzero"/></clipPath><clipPath id="5e54015055"><path d="M 247.371094 40.242188 L 458.871094 182.265625 L 292.617188 429.84375 L 81.117188 287.820312 Z M 247.371094 40.242188 " clip-rule="nonzero"/></clipPath><clipPath id="62755b188f"><path d="M 276 400 L 286 400 L 286 411 L 276 411 Z M 276 400 " clip-rule="nonzero"/></clipPath><clipPath id="2d0a02418a"><path d="M 247.371094 40.242188 L 458.871094 182.265625 L 292.617188 429.84375 L 81.117188 287.820312 Z M 247.371094 40.242188 " clip-rule="nonzero"/></clipPath><clipPath id="cb8b03288d"><path d="M 247.371094 40.242188 L 458.871094 182.265625 L 292.617188 429.84375 L 81.117188 287.820312 Z M 247.371094 40.242188 " clip-rule="nonzero"/></clipPath><clipPath id="0b486740f7"><path d="M 247.371094 40.242188 L 458.871094 182.265625 L 292.617188 429.84375 L 81.117188 287.820312 Z M 247.371094 40.242188 " clip-rule="nonzero"/></clipPath><clipPath id="43ad35340c"><path d="M 215 177 L 225 177 L 225 188 L 215 188 Z M 215 177 " clip-rule="nonzero"/></clipPath><clipPath id="ecf955e21a"><path d="M 247.371094 40.242188 L 458.871094 182.265625 L 292.617188 429.84375 L 81.117188 287.820312 Z M 247.371094 40.242188 " clip-rule="nonzero"/></clipPath><clipPath id="8052791802"><path d="M 247.371094 40.242188 L 458.871094 182.265625 L 292.617188 429.84375 L 81.117188 287.820312 Z M 247.371094 40.242188 " clip-rule="nonzero"/></clipPath><clipPath id="16201dedbb"><path d="M 247.371094 40.242188 L 458.871094 182.265625 L 292.617188 429.84375 L 81.117188 287.820312 Z M 247.371094 40.242188 " clip-rule="nonzero"/></clipPath><clipPath id="b170d60cef"><path d="M 163 188 L 208 188 L 208 291 L 163 291 Z M 163 188 " clip-rule="nonzero"/></clipPath><clipPath id="01668b4d03"><path d="M 247.371094 40.242188 L 458.871094 182.265625 L 292.617188 429.84375 L 81.117188 287.820312 Z M 247.371094 40.242188 " clip-rule="nonzero"/></clipPath><clipPath id="a6eb3debc7"><path d="M 247.371094 40.242188 L 458.871094 182.265625 L 292.617188 429.84375 L 81.117188 287.820312 Z M 247.371094 40.242188 " clip-rule="nonzero"/></clipPath><clipPath id="2766536c5e"><path d="M 247.371094 40.242188 L 458.871094 182.265625 L 292.617188 429.84375 L 81.117188 287.820312 Z M 247.371094 40.242188 " clip-rule="nonzero"/></clipPath></defs><g clip-path="url(#7780a6420a)"><path fill="#e4e4df" d="M 0.128906 0 L 539.996094 0 L 539.996094 531.558594 L 0.128906 531.558594 Z M 0.128906 0 " fill-opacity="1" fill-rule="nonzero"/></g><g clip-path="url(#2733b1e872)"><g clip-path="url(#763e7d6218)"><g clip-path="url(#9087af395c)"><g clip-path="url(#31ebbc10fa)"><path fill="#000000" d="M 330.414062 259.535156 C 332.085938 260.65625 334.371094 260.417969 335.777344 258.886719 L 350.410156 242.917969 C 351.957031 241.230469 351.84375 238.605469 350.15625 237.058594 C 348.460938 235.523438 345.847656 235.628906 344.300781 237.320312 L 329.667969 253.289062 C 328.121094 254.976562 328.234375 257.597656 329.921875 259.144531 C 330.078125 259.289062 330.242188 259.417969 330.414062 259.535156 Z M 330.414062 259.535156 " fill-opacity="1" fill-rule="nonzero"/></g></g></g></g><g clip-path="url(#90ecba2267)"><g clip-path="url(#dd11765e5c)"><g clip-path="url(#64b94b0d6d)"><g clip-path="url(#a7656e4a7c)"><path fill="#000000" d="M 321.796875 226.023438 C 319.550781 225.574219 317.367188 227.03125 316.917969 229.277344 L 314.074219 243.488281 C 313.734375 245.183594 314.480469 246.839844 315.828125 247.746094 C 316.265625 248.039062 316.773438 248.257812 317.324219 248.367188 C 319.570312 248.816406 321.75 247.359375 322.203125 245.113281 L 325.046875 230.902344 C 325.492188 228.65625 324.039062 226.472656 321.796875 226.023438 Z M 321.796875 226.023438 " fill-opacity="1" fill-rule="nonzero"/></g></g></g></g><g clip-path="url(#40600087db)"><g clip-path="url(#e1d3b03977)"><g clip-path="url(#b1f8bb1faa)"><g clip-path="url(#7cca8dd41f)"><path fill="#000000" d="M 345.191406 275.109375 L 357.617188 271.683594 C 359.824219 271.074219 361.125 268.792969 360.515625 266.582031 C 359.910156 264.378906 357.632812 263.078125 355.421875 263.6875 L 342.996094 267.117188 C 340.789062 267.722656 339.492188 270.007812 340.097656 272.214844 C 340.371094 273.210938 340.984375 274.019531 341.777344 274.554688 C 342.746094 275.203125 343.980469 275.445312 345.191406 275.109375 Z M 345.191406 275.109375 " fill-opacity="1" fill-rule="nonzero"/></g></g></g></g><g clip-path="url(#db99a5a46d)"><g clip-path="url(#f0faaedc70)"><g clip-path="url(#38b49af116)"><g clip-path="url(#5e54015055)"><path fill="#000000" d="M 359.171875 324.335938 C 361.644531 324.886719 364.097656 323.324219 364.648438 320.851562 C 365.199219 318.378906 363.648438 315.933594 361.167969 315.375 C 355.914062 314.207031 351.621094 313.648438 347.839844 313.15625 C 346.472656 312.980469 345.140625 312.804688 343.824219 312.613281 C 344.230469 293.84375 332.109375 273.890625 311.289062 259.59375 C 311.015625 259.40625 310.742188 259.222656 310.464844 259.035156 C 290.511719 245.636719 268.054688 241.457031 251.46875 247.761719 C 249.464844 244.246094 246.660156 242.238281 242.789062 240.425781 C 265.449219 225.476562 272.796875 209.132812 279.925781 193.277344 C 283.722656 184.835938 287.394531 176.667969 293.417969 168.910156 C 298.625 181.566406 328.3125 202.628906 342.179688 204.523438 C 342.765625 204.605469 343.359375 204.570312 343.929688 204.425781 C 372.671875 197.136719 385.199219 177.851562 382.226562 145.460938 C 382.132812 144.4375 381.695312 143.472656 380.988281 142.722656 C 361.835938 122.546875 342.429688 104.179688 315.617188 101.03125 C 315.269531 100.988281 314.921875 100.988281 314.574219 101.027344 C 270.53125 105.933594 226.46875 133.824219 177.5625 167.03125 C 149.871094 185.839844 138.976562 217.457031 128.441406 248.03125 C 126.453125 253.796875 124.398438 259.757812 122.257812 265.570312 C 121.671875 267.160156 122.007812 268.941406 123.128906 270.207031 C 124.117188 271.316406 125.042969 272.464844 125.972656 273.613281 C 130.753906 279.511719 136.132812 286.140625 148.089844 287.976562 C 167.128906 330.71875 195.273438 364.707031 232 389.371094 C 240.730469 395.230469 249.945312 400.566406 259.636719 405.367188 C 261.90625 406.492188 264.65625 405.5625 265.785156 403.289062 C 266.914062 401.015625 265.972656 398.265625 263.710938 397.140625 C 213.78125 372.398438 178.367188 334.707031 155.449219 281.894531 C 154.777344 280.34375 153.3125 279.292969 151.628906 279.152344 C 141.589844 278.300781 137.847656 273.679688 133.105469 267.828125 C 132.667969 267.289062 132.230469 266.75 131.792969 266.214844 C 133.632812 261.128906 135.402344 256 137.117188 251.015625 C 147.628906 220.519531 157.554688 191.714844 182.714844 174.625 C 230.386719 142.253906 273.273438 115.054688 315.054688 110.210938 C 338.078125 113.128906 355.769531 129.578125 373.21875 147.882812 C 375.246094 174.417969 365.75 189.105469 342.597656 195.289062 C 330.136719 192.851562 305.21875 172.996094 302.097656 166.15625 C 304.320312 162.316406 310.074219 154.070312 311.359375 152.300781 C 312.164062 151.222656 312.472656 149.816406 312.140625 148.460938 C 311.683594 146.59375 310.113281 145.210938 308.210938 144.996094 C 306.71875 144.824219 306.007812 144.742188 304.808594 145.960938 C 285.078125 159.449219 278.203125 174.734375 271.554688 189.519531 C 263.929688 206.480469 256.726562 222.5 230.378906 237.230469 C 228.828125 238.097656 227.917969 239.777344 228.039062 241.550781 C 228.15625 243.320312 229.292969 244.859375 230.9375 245.511719 L 232.808594 246.242188 C 240.46875 249.226562 242.621094 250.183594 243.910156 253.105469 C 240.65625 257.714844 233.960938 269.082031 236.8125 281.308594 C 237.085938 282.480469 237.792969 283.445312 238.722656 284.070312 C 239.742188 284.753906 241.035156 285.03125 242.324219 284.726562 C 244.792969 284.148438 246.324219 281.679688 245.75 279.210938 C 243.542969 269.761719 250.050781 260.175781 252.007812 257.570312 C 265.898438 250.578125 286.613281 254.078125 305.328125 266.648438 C 305.582031 266.820312 305.835938 266.988281 306.09375 267.167969 C 325.398438 280.421875 336.507812 299.53125 334.390625 315.84375 C 334.078125 318.238281 335.664062 320.457031 338.035156 320.933594 C 340.972656 321.523438 343.730469 321.882812 346.648438 322.261719 C 350.417969 322.753906 354.316406 323.257812 359.171875 324.335938 Z M 359.171875 324.335938 " fill-opacity="1" fill-rule="nonzero"/></g></g></g></g><g clip-path="url(#62755b188f)"><g clip-path="url(#2d0a02418a)"><g clip-path="url(#cb8b03288d)"><g clip-path="url(#0b486740f7)"><path fill="#000000" d="M 284.394531 408.007812 C 284.226562 408.257812 284.035156 408.488281 283.824219 408.703125 C 283.609375 408.914062 283.378906 409.105469 283.125 409.273438 C 282.875 409.4375 282.609375 409.578125 282.332031 409.695312 C 282.054688 409.808594 281.765625 409.894531 281.46875 409.953125 C 281.175781 410.011719 280.875 410.042969 280.574219 410.039062 C 280.273438 410.039062 279.976562 410.011719 279.679688 409.949219 C 279.382812 409.890625 279.097656 409.804688 278.820312 409.6875 C 278.542969 409.570312 278.277344 409.429688 278.027344 409.261719 C 277.777344 409.09375 277.546875 408.902344 277.332031 408.691406 C 277.121094 408.476562 276.933594 408.246094 276.765625 407.992188 C 276.597656 407.742188 276.457031 407.476562 276.34375 407.199219 C 276.226562 406.921875 276.140625 406.632812 276.085938 406.335938 C 276.027344 406.042969 275.996094 405.742188 276 405.441406 C 276 405.140625 276.03125 404.839844 276.089844 404.546875 C 276.148438 404.25 276.238281 403.964844 276.351562 403.6875 C 276.46875 403.40625 276.609375 403.144531 276.777344 402.894531 C 276.945312 402.640625 277.136719 402.410156 277.351562 402.199219 C 277.566406 401.984375 277.796875 401.796875 278.046875 401.628906 C 278.300781 401.460938 278.5625 401.320312 278.84375 401.207031 C 279.121094 401.089844 279.410156 401.003906 279.703125 400.945312 C 280 400.886719 280.296875 400.859375 280.601562 400.859375 C 280.902344 400.859375 281.199219 400.890625 281.496094 400.949219 C 281.789062 401.007812 282.078125 401.097656 282.355469 401.210938 C 282.632812 401.328125 282.898438 401.46875 283.148438 401.636719 C 283.398438 401.804688 283.628906 401.996094 283.839844 402.210938 C 284.054688 402.425781 284.242188 402.65625 284.410156 402.90625 C 284.578125 403.160156 284.71875 403.421875 284.832031 403.703125 C 284.945312 403.980469 285.03125 404.269531 285.089844 404.5625 C 285.148438 404.859375 285.175781 405.15625 285.175781 405.460938 C 285.175781 405.761719 285.144531 406.058594 285.085938 406.355469 C 285.027344 406.648438 284.9375 406.9375 284.820312 407.214844 C 284.707031 407.492188 284.5625 407.757812 284.394531 408.007812 Z M 284.394531 408.007812 " fill-opacity="1" fill-rule="nonzero"/></g></g></g></g><g clip-path="url(#43ad35340c)"><g clip-path="url(#ecf955e21a)"><g clip-path="url(#8052791802)"><g clip-path="url(#16201dedbb)"><path fill="#000000" d="M 224.140625 185.03125 C 223.972656 185.28125 223.78125 185.511719 223.570312 185.726562 C 223.355469 185.9375 223.121094 186.128906 222.871094 186.296875 C 222.621094 186.460938 222.355469 186.605469 222.078125 186.71875 C 221.796875 186.832031 221.511719 186.917969 221.214844 186.976562 C 220.917969 187.035156 220.621094 187.066406 220.320312 187.066406 C 220.019531 187.0625 219.71875 187.035156 219.425781 186.976562 C 219.128906 186.914062 218.84375 186.828125 218.566406 186.710938 C 218.285156 186.597656 218.023438 186.453125 217.773438 186.285156 C 217.523438 186.117188 217.292969 185.925781 217.078125 185.714844 C 216.867188 185.5 216.675781 185.269531 216.511719 185.015625 C 216.34375 184.765625 216.203125 184.5 216.089844 184.222656 C 215.972656 183.945312 215.886719 183.65625 215.828125 183.359375 C 215.769531 183.066406 215.742188 182.765625 215.742188 182.464844 C 215.746094 182.164062 215.773438 181.867188 215.835938 181.570312 C 215.894531 181.273438 215.980469 180.988281 216.097656 180.710938 C 216.214844 180.429688 216.355469 180.167969 216.523438 179.917969 C 216.691406 179.667969 216.882812 179.433594 217.097656 179.222656 C 217.308594 179.007812 217.542969 178.820312 217.792969 178.652344 C 218.042969 178.484375 218.308594 178.34375 218.589844 178.230469 C 218.867188 178.113281 219.152344 178.027344 219.449219 177.96875 C 219.746094 177.914062 220.042969 177.882812 220.34375 177.882812 C 220.644531 177.882812 220.945312 177.914062 221.238281 177.972656 C 221.535156 178.035156 221.820312 178.121094 222.101562 178.238281 C 222.378906 178.351562 222.640625 178.496094 222.890625 178.664062 C 223.140625 178.832031 223.375 179.019531 223.585938 179.234375 C 223.796875 179.449219 223.988281 179.679688 224.15625 179.929688 C 224.320312 180.183594 224.460938 180.445312 224.578125 180.726562 C 224.691406 181.003906 224.777344 181.292969 224.835938 181.585938 C 224.894531 181.882812 224.921875 182.179688 224.921875 182.484375 C 224.921875 182.785156 224.890625 183.082031 224.832031 183.378906 C 224.769531 183.675781 224.683594 183.960938 224.566406 184.238281 C 224.453125 184.515625 224.308594 184.78125 224.140625 185.03125 Z M 224.140625 185.03125 " fill-opacity="1" fill-rule="nonzero"/></g></g></g></g><g clip-path="url(#b170d60cef)"><g clip-path="url(#01668b4d03)"><g clip-path="url(#a6eb3debc7)"><g clip-path="url(#2766536c5e)"><path fill="#000000" d="M 206.226562 189.777344 C 204.558594 187.875 201.652344 187.699219 199.753906 189.378906 C 198.453125 190.527344 196.996094 191.699219 195.496094 192.914062 C 189.140625 198.050781 181.953125 203.859375 179.636719 212.148438 C 178.320312 214.953125 177.113281 217.457031 176.003906 219.757812 C 170.125 231.945312 166.574219 239.296875 164.027344 256.632812 L 163.824219 258.007812 L 164.417969 259.261719 C 164.695312 259.851562 171.339844 273.855469 180.457031 287.980469 C 180.804688 288.523438 181.246094 288.964844 181.746094 289.304688 C 183.226562 290.292969 185.210938 290.371094 186.796875 289.347656 C 188.925781 287.96875 189.539062 285.128906 188.164062 283 C 180.914062 271.753906 175.136719 260.289062 173.316406 256.574219 C 175.628906 241.652344 178.570312 235.550781 184.269531 223.742188 C 185.441406 221.308594 186.71875 218.660156 188.121094 215.667969 L 188.410156 214.859375 C 189.832031 209.289062 195.902344 204.382812 201.257812 200.054688 C 202.871094 198.75 204.429688 197.492188 205.824219 196.253906 C 207.726562 194.578125 207.90625 191.675781 206.226562 189.777344 Z M 206.226562 189.777344 " fill-opacity="1" fill-rule="nonzero"/></g></g></g></g></svg>