<svg xmlns="http://www.w3.org/2000/svg" xmlns:xlink="http://www.w3.org/1999/xlink" width="721" zoomAndPan="magnify" viewBox="0 0 540.75 532.499984" height="710" preserveAspectRatio="xMidYMid meet" version="1.0"><defs><clipPath id="ff1b11e13c"><path d="M 0.128906 0 L 539.988281 0 L 539.988281 531.558594 L 0.128906 531.558594 Z M 0.128906 0 " clip-rule="nonzero"/></clipPath><clipPath id="a29dcd0bfc"><path d="M 155 232 L 187 232 L 187 269 L 155 269 Z M 155 232 " clip-rule="nonzero"/></clipPath><clipPath id="80a48b858a"><path d="M 109.070312 267.109375 L 275.476562 141.8125 L 375.082031 274.101562 L 208.675781 399.398438 Z M 109.070312 267.109375 " clip-rule="nonzero"/></clipPath><clipPath id="a2719456df"><path d="M 109.070312 267.109375 L 275.476562 141.8125 L 375.082031 274.101562 L 208.675781 399.398438 Z M 109.070312 267.109375 " clip-rule="nonzero"/></clipPath><clipPath id="0a84586620"><path d="M 109.070312 267.109375 L 275.476562 141.8125 L 375.082031 274.101562 L 208.675781 399.398438 Z M 109.070312 267.109375 " clip-rule="nonzero"/></clipPath><clipPath id="17d4e37136"><path d="M 216 185 L 247 185 L 247 219 L 216 219 Z M 216 185 " clip-rule="nonzero"/></clipPath><clipPath id="5b8082f013"><path d="M 109.070312 267.109375 L 275.476562 141.8125 L 375.082031 274.101562 L 208.675781 399.398438 Z M 109.070312 267.109375 " clip-rule="nonzero"/></clipPath><clipPath id="4cd2c02549"><path d="M 109.070312 267.109375 L 275.476562 141.8125 L 375.082031 274.101562 L 208.675781 399.398438 Z M 109.070312 267.109375 " clip-rule="nonzero"/></clipPath><clipPath id="b8f7fa752b"><path d="M 109.070312 267.109375 L 275.476562 141.8125 L 375.082031 274.101562 L 208.675781 399.398438 Z M 109.070312 267.109375 " clip-rule="nonzero"/></clipPath><clipPath id="617110e7e0"><path d="M 166 180 L 327 180 L 327 365 L 166 365 Z M 166 180 " clip-rule="nonzero"/></clipPath><clipPath id="e6408dec00"><path d="M 109.070312 267.109375 L 275.476562 141.8125 L 375.082031 274.101562 L 208.675781 399.398438 Z M 109.070312 267.109375 " clip-rule="nonzero"/></clipPath><clipPath id="5916a77edf"><path d="M 109.070312 267.109375 L 275.476562 141.8125 L 375.082031 274.101562 L 208.675781 399.398438 Z M 109.070312 267.109375 " clip-rule="nonzero"/></clipPath><clipPath id="f2e60ab981"><path d="M 109.070312 267.109375 L 275.476562 141.8125 L 375.082031 274.101562 L 208.675781 399.398438 Z M 109.070312 267.109375 " clip-rule="nonzero"/></clipPath></defs><g clip-path="url(#ff1b11e13c)"><path fill="#e4e4df" d="M 0.128906 0 L 539.996094 0 L 539.996094 531.558594 L 0.128906 531.558594 Z M 0.128906 0 " fill-opacity="1" fill-rule="nonzero"/></g><g clip-path="url(#a29dcd0bfc)"><g clip-path="url(#80a48b858a)"><g clip-path="url(#a2719456df)"><g clip-path="url(#0a84586620)"><path fill="#000000" d="M 156.378906 240.871094 C 158.78125 245.703125 162.863281 250.070312 166.195312 254.378906 C 169.699219 258.914062 173.230469 263.25 177.027344 267.472656 C 180.699219 271.527344 188.546875 266.589844 186.171875 261.5625 C 183.542969 255.839844 180.601562 250.878906 176.746094 245.992188 C 172.917969 241.257812 168.792969 236.132812 163.527344 233.011719 C 161.476562 231.8125 158.5 232.546875 157.007812 234.203125 C 155.21875 236.167969 155.328125 238.65625 156.378906 240.871094 Z M 156.378906 240.871094 " fill-opacity="1" fill-rule="nonzero"/></g></g></g></g><g clip-path="url(#17d4e37136)"><g clip-path="url(#5b8082f013)"><g clip-path="url(#4cd2c02549)"><g clip-path="url(#b8f7fa752b)"><path fill="#000000" d="M 216.527344 193.285156 C 217.386719 197.945312 221.851562 202.46875 224.828125 206.070312 C 228.273438 210.292969 231.800781 213.921875 236.078125 217.257812 C 241.894531 221.820312 248.472656 215.539062 245.511719 209.265625 C 243.066406 204.023438 240.015625 199.855469 236.0625 195.660156 C 232.507812 191.875 228.410156 187.257812 223.210938 185.859375 C 218.585938 184.648438 215.765625 189.339844 216.527344 193.285156 Z M 216.527344 193.285156 " fill-opacity="1" fill-rule="nonzero"/></g></g></g></g><g clip-path="url(#617110e7e0)"><g clip-path="url(#e6408dec00)"><g clip-path="url(#5916a77edf)"><g clip-path="url(#f2e60ab981)"><path fill="#000000" d="M 166.78125 343.105469 C 173.035156 351.765625 183.359375 356.566406 193.242188 359.839844 C 202.984375 363.042969 213.378906 364.421875 223.617188 364.0625 C 243.132812 363.359375 262.625 356.648438 278.691406 345.617188 C 294.976562 334.414062 308.683594 318.960938 316.757812 300.839844 C 324.820312 282.816406 328.015625 262.785156 326.484375 243.042969 C 325.628906 232.175781 323.363281 221.308594 319.757812 211.007812 C 317.933594 205.652344 315.699219 200.339844 313.070312 195.324219 C 310.425781 190.40625 307.542969 184.699219 302.898438 181.464844 C 298.484375 178.414062 293.097656 181.582031 294.203125 187.039062 C 295.109375 191.40625 297.617188 195.089844 299.523438 199.148438 C 301.386719 203.144531 303.195312 207.1875 304.734375 211.339844 C 307.710938 219.28125 309.882812 227.5625 310.984375 235.941406 C 313.257812 252.914062 312.054688 270.554688 306.261719 286.78125 C 294.730469 318.839844 265.496094 344.042969 231.707031 349.824219 C 221.839844 351.5 211.546875 351.546875 201.753906 349.800781 C 190.632812 347.8125 181.351562 342.757812 171.210938 338.085938 C 168.3125 336.816406 164.667969 340.179688 166.78125 343.105469 Z M 166.78125 343.105469 " fill-opacity="1" fill-rule="nonzero"/></g></g></g></g></svg>