<svg xmlns="http://www.w3.org/2000/svg" xmlns:xlink="http://www.w3.org/1999/xlink" width="895" zoomAndPan="magnify" viewBox="0 0 671.25 621.749982" height="829" preserveAspectRatio="xMidYMid meet" version="1.0"><defs><clipPath id="868c71251f"><path d="M 0 0.222656 L 670.5 0.222656 L 670.5 621.277344 L 0 621.277344 Z M 0 0.222656 " clip-rule="nonzero"/></clipPath><clipPath id="6667186781"><path d="M 0 0.222656 L 670.445312 0.222656 L 670.445312 620.882812 L 0 620.882812 Z M 0 0.222656 " clip-rule="nonzero"/></clipPath><clipPath id="8377306dda"><path d="M 126 55 L 547 55 L 547 540 L 126 540 Z M 126 55 " clip-rule="nonzero"/></clipPath><clipPath id="865abb9b8f"><path d="M 48.816406 268.710938 L 376.820312 24.320312 L 621.214844 352.328125 L 293.207031 596.71875 Z M 48.816406 268.710938 " clip-rule="nonzero"/></clipPath><clipPath id="d4c9d56b69"><path d="M 48.816406 268.710938 L 376.820312 24.320312 L 621.214844 352.328125 L 293.207031 596.71875 Z M 48.816406 268.710938 " clip-rule="nonzero"/></clipPath><clipPath id="7a07ba4cfb"><path d="M 48.816406 268.710938 L 376.820312 24.320312 L 621.214844 352.328125 L 293.207031 596.71875 Z M 48.816406 268.710938 " clip-rule="nonzero"/></clipPath></defs><g clip-path="url(#868c71251f)"><path fill="#ffffff" d="M 0 0.222656 L 670.5 0.222656 L 670.5 621.277344 L 0 621.277344 Z M 0 0.222656 " fill-opacity="1" fill-rule="nonzero"/></g><g clip-path="url(#6667186781)"><path fill="#e4e4df" d="M 0 0.222656 L 671.574219 0.222656 L 671.574219 620.882812 L 0 620.882812 Z M 0 0.222656 " fill-opacity="1" fill-rule="nonzero"/></g><g clip-path="url(#8377306dda)"><g clip-path="url(#865abb9b8f)"><g clip-path="url(#d4c9d56b69)"><g clip-path="url(#7a07ba4cfb)"><path fill="#000000" d="M 231.429688 295.386719 C 234.171875 295.332031 236.601562 294.320312 238.648438 292.792969 C 239.925781 291.839844 241.015625 290.632812 241.660156 289.359375 L 248.777344 278.085938 C 254.421875 269.105469 251.585938 257.292969 242.863281 251.457031 L 212.867188 232.027344 C 206.179688 227.855469 197.5 227.957031 191.105469 232.722656 C 189.3125 234.058594 187.457031 235.839844 186.238281 237.941406 L 178.542969 250.042969 C 176.492188 253.160156 176.160156 256.988281 177.234375 260.566406 C 175.125 260.941406 173.210938 261.574219 171.417969 262.910156 C 170.140625 263.863281 169.050781 265.070312 168.410156 266.34375 L 135.699219 318.570312 C 132.304688 323.089844 113.890625 353.917969 142.226562 394.082031 C 145.65625 398.6875 151.519531 400.683594 156.824219 398.722656 C 158.039062 398.214844 159.253906 397.707031 160.277344 396.945312 C 163.601562 394.46875 165.59375 390.199219 165.542969 385.859375 C 165.058594 378.265625 166.074219 358.804688 175.492188 347.410156 L 191.371094 351.097656 C 195.132812 351.875 198.898438 351.058594 201.714844 348.960938 C 202.992188 348.007812 204.082031 346.800781 204.722656 345.523438 L 205.300781 344.699219 L 242.175781 368.550781 L 219.402344 385.519531 C 216.332031 387.804688 214.40625 391.628906 214.074219 395.457031 C 213.933594 399.539062 215.710938 402.992188 218.765625 405.492188 L 239.132812 422.144531 C 241.808594 424.132812 245.058594 425.292969 248.3125 424.855469 L 355.425781 536.039062 C 360.003906 540.582031 367.214844 541.179688 372.332031 537.367188 L 541.195312 411.550781 C 546.3125 407.734375 547.804688 400.65625 544.757812 394.96875 L 468.863281 260.527344 C 470.210938 257.535156 470.03125 254.085938 468.890625 250.957031 L 458.757812 226.675781 C 457.238281 223.035156 453.992188 220.28125 450.484375 219.3125 C 446.53125 218.277344 442.765625 219.09375 439.4375 221.574219 L 434.578125 225.195312 L 429.84375 209.226562 C 431.054688 208.722656 432.335938 207.769531 433.359375 207.003906 C 440.777344 201.476562 444.191406 192.171875 441.601562 183.355469 L 437.4375 168.15625 C 436.554688 164.835938 434.457031 162.019531 431.273438 160.414062 C 428.085938 158.808594 424.960938 158.351562 421.640625 159.234375 C 421.640625 159.234375 421.382812 159.425781 421.382812 159.425781 C 421.382812 159.425781 421.128906 159.617188 420.9375 159.359375 C 420.9375 159.359375 420.746094 159.105469 420.746094 159.105469 C 420.558594 158.847656 421.070312 158.46875 421.070312 158.46875 C 421.070312 158.46875 421.070312 158.46875 421.324219 158.277344 C 421.324219 158.277344 421.582031 158.085938 421.582031 158.085938 C 423.242188 157.644531 424.453125 157.140625 425.734375 156.183594 C 429.828125 153.136719 431.757812 147.71875 430.433594 142.734375 L 412.960938 78.164062 C 410.753906 69.863281 405.351562 63.144531 397.960938 59.101562 C 390.574219 55.058594 381.832031 54.007812 373.53125 56.214844 L 355.199219 61.519531 C 351.367188 62.78125 347.726562 64.304688 344.65625 66.589844 C 333.910156 74.597656 329.464844 87.855469 332.613281 100.628906 L 350.085938 165.199219 C 351.851562 171.84375 358.796875 175.820312 365.628906 174.308594 C 365.882812 174.121094 366.332031 174.183594 366.265625 174.632812 C 366.457031 174.886719 365.945312 175.269531 365.945312 175.269531 C 365.945312 175.269531 365.6875 175.460938 365.6875 175.460938 C 364.285156 175.710938 363.003906 176.664062 361.980469 177.425781 C 357.886719 180.476562 355.957031 185.894531 357.28125 190.875 L 361.445312 206.078125 C 362.894531 211.761719 366.773438 216.429688 371.804688 219.445312 C 376.644531 222.207031 382.003906 222.988281 387.429688 221.730469 L 396.710938 253.410156 L 370.359375 273.042969 L 313.167969 196.289062 C 321.140625 177.617188 319.039062 156.105469 307.027344 139.984375 C 294.828125 123.609375 275.261719 115.507812 254.132812 118.121094 C 251.835938 118.242188 249.851562 119.320312 248.0625 120.65625 C 246.269531 121.988281 244.859375 123.835938 243.898438 125.746094 C 242.160156 129.824219 242.59375 134.675781 245.453125 138.515625 L 262.609375 161.542969 L 255.742188 174.21875 L 241.886719 176.984375 L 225.300781 154.722656 C 222.632812 151.140625 217.914062 149.085938 213.253906 149.773438 C 211.148438 150.148438 208.976562 150.972656 207.441406 152.113281 C 205.648438 153.449219 203.984375 155.484375 203.210938 157.652344 C 195.6875 176.390625 198.363281 197.074219 209.992188 212.683594 C 222.003906 228.800781 242.015625 236.96875 262.1875 234.671875 L 319.1875 311.171875 L 284.390625 337.097656 L 231.660156 303.175781 C 232.308594 300.304688 232.25 297.558594 231.429688 295.386719 Z M 533.570312 401.316406 L 364.707031 527.132812 L 259.949219 418.574219 L 459.515625 269.878906 Z M 374.089844 202.222656 L 369.925781 187.023438 C 371.589844 186.582031 372.867188 185.628906 373.890625 184.867188 C 378.238281 181.625 380.425781 176.015625 378.976562 170.332031 C 377.019531 163.433594 369.886719 159.199219 362.800781 160.902344 L 345.328125 96.328125 C 343.054688 88.472656 346.269531 80.507812 352.410156 75.933594 C 354.199219 74.597656 356.4375 73.328125 358.800781 72.761719 L 377.132812 67.457031 C 387.351562 64.621094 397.925781 70.269531 400.765625 80.488281 L 418.238281 145.058594 C 418.238281 145.058594 417.984375 145.25 417.984375 145.25 C 416.324219 145.691406 414.851562 146.386719 413.574219 147.339844 C 409.222656 150.582031 407.035156 156.191406 408.488281 161.875 C 410.441406 168.773438 417.765625 173.261719 424.921875 171.117188 C 424.921875 171.117188 425.175781 170.925781 425.175781 170.925781 L 429.339844 186.125 C 430.347656 190.148438 428.867188 194.035156 425.796875 196.324219 C 424.773438 197.085938 423.816406 197.402344 422.601562 197.910156 L 385.492188 208.449219 C 380.703125 210.03125 375.414062 207.207031 374.089844 202.222656 Z M 417.898438 212.953125 L 423.832031 233.203125 L 407.96875 245.023438 L 400.269531 218.132812 Z M 220.035156 204.800781 C 210.695312 192.265625 209.40625 176.113281 214.875 162.09375 L 236.417969 191.003906 L 264.386719 185.285156 L 277.867188 160.121094 L 255.941406 130.699219 C 271.710938 128.898438 287.519531 134.628906 297.050781 147.421875 C 307.914062 162.003906 307.980469 181.851562 298.421875 197.328125 L 360.1875 280.222656 L 329.230469 303.289062 L 267.65625 220.648438 C 249.902344 225.125 231.09375 219.640625 220.035156 204.800781 Z M 446.875 231.550781 L 457.007812 255.832031 L 247.207031 412.152344 L 226.835938 395.496094 Z M 219.226562 299.304688 L 215.054688 307.589844 L 273.199219 345.039062 L 252.984375 360.097656 L 201.339844 326.5625 L 193.898438 338.472656 L 171.386719 333.359375 C 150.277344 349.882812 152.648438 386.710938 152.648438 386.710938 C 127.492188 351.34375 146.078125 325.558594 146.078125 325.558594 L 179.042969 273.144531 L 195.691406 276.257812 L 200.179688 268.933594 L 189.179688 256.839844 L 196.875 244.738281 C 197.195312 244.101562 197.964844 243.53125 198.476562 243.148438 C 200.523438 241.625 203.523438 241.378906 205.8125 242.851562 L 235.808594 262.28125 C 238.929688 264.335938 239.746094 268.101562 237.695312 271.222656 L 230.578125 282.496094 L 215.78125 279.195312 L 210.394531 287.984375 Z M 219.226562 299.304688 " fill-opacity="1" fill-rule="nonzero"/></g></g></g></g></svg>